<svg xmlns="http://www.w3.org/2000/svg" xmlns:xlink="http://www.w3.org/1999/xlink" viewBox="0,0,256,256" width="96px" height="96px" fill-rule="nonzero"><g fill="none" fill-rule="nonzero" stroke="none" stroke-width="1" stroke-linecap="butt" stroke-linejoin="miter" stroke-miterlimit="10" stroke-dasharray="" stroke-dashoffset="0" font-family="none" font-weight="none" font-size="none" text-anchor="none" style="mix-blend-mode: normal"><g transform="scale(5.33333,5.33333)"><path d="M46,40.02c0.005,-0.262 -0.092,-0.526 -0.293,-0.727l-9,-9c-0.391,-0.391 -1.023,-0.391 -1.414,0l-0.293,0.293l-1.953,-1.953c1.24,-2.271 1.953,-4.869 1.953,-7.633c0,-0.289 0,-1.615 0,-2c0,-8.822 -7.178,-16 -16,-16c-8.822,0 -16,7.178 -16,16c0,0.338 0,1.662 0,2c0,8.822 7.178,16 16,16c3.285,0 6.34,-0.998 8.884,-2.702l2.409,2.409l0.293,0.293l-0.293,0.293c-0.391,0.391 -0.391,1.023 0,1.414l7.274,7.274c0.671,0.671 1.552,1.006 2.433,1.006c0.881,0 1.762,-0.335 2.433,-1.006l3.274,-3.274c0.195,-0.195 0.293,-0.451 0.293,-0.707c0,-0.256 -0.005,-1.731 0,-1.98z" fill="#ede3e3"></path><rect x="40.30462" y="-2.12177" transform="rotate(45.001)" width="7.071" height="4.243" fill="#ffffff"></rect><path d="M32,36c-0.256,0 -0.512,-0.098 -0.707,-0.293l-5,-5c-0.391,-0.391 -0.391,-1.023 0,-1.414l3,-3c0.391,-0.391 1.023,-0.391 1.414,0l5,5c0.391,0.391 0.391,1.023 0,1.414l-3,3c-0.195,0.195 -0.451,0.293 -0.707,0.293zM28.414,30l3.586,3.586l1.586,-1.586l-3.586,-3.586z" fill="#ede3e3"></path><path d="M31,36l7.275,7.275c0.953,0.953 2.498,0.953 3.451,0l3.274,-3.275l-9,-9z" fill="#ffffff"></path><path d="M40,44.989c-0.919,0 -1.783,-0.358 -2.433,-1.008l-7.274,-7.274c-0.188,-0.187 -0.293,-0.441 -0.293,-0.707c0,-0.266 0.105,-0.52 0.293,-0.707l5,-5c0.391,-0.391 1.023,-0.391 1.414,0l9,9c0.188,0.187 0.293,0.441 0.293,0.707c0,0.266 -0.105,0.52 -0.293,0.707l-3.275,3.274c-0.649,0.65 -1.513,1.008 -2.432,1.008zM32.414,36l6.568,6.567c0.544,0.545 1.493,0.545 2.036,0l2.568,-2.567l-7.586,-7.586z" fill="#ede3e3"></path><circle cx="19" cy="19" r="15" fill="#ffffff"></circle><path d="M19,35c-8.822,0 -16,-7.178 -16,-16c0,-8.822 7.178,-16 16,-16c8.822,0 16,7.178 16,16c0,8.822 -7.178,16 -16,16zM19,5c-7.72,0 -14,6.28 -14,14c0,7.72 6.28,14 14,14c7.72,0 14,-6.28 14,-14c0,-7.72 -6.28,-14 -14,-14z" fill="#ede3e3"></path></g></g></svg>